<?xml version="1.0" encoding="utf-8"?>
<!-- Generator: Adobe Illustrator 26.1.0, SVG Export Plug-In . SVG Version: 6.00 Build 0)  -->
<svg version="1.1" xmlns="http://www.w3.org/2000/svg" xmlns:xlink="http://www.w3.org/1999/xlink" x="0px" y="0px"
	 viewBox="0 0 841.9 401.9" style="enable-background:new 0 0 841.9 401.9;" xml:space="preserve">
<style type="text/css">
	.st0{fill:#FFFFFF;}
	.st1{fill:url(#SVGID_1_);}
	.st2{fill:url(#SVGID_00000036970237609659588650000003483253695182290357_);}
	.st3{display:none;fill:url(#SVGID_00000020393367620300425910000014394784861679780282_);}
	.st4{display:none;fill:url(#SVGID_00000070115197196770845650000008551773007833801379_);}
	.st5{display:none;fill:url(#SVGID_00000016046373930556217710000010310882126392169892_);}
	.st6{display:none;fill:#EF4136;}
	.st7{display:none;}
	.st8{display:inline;fill:url(#SVGID_00000082335915923344453080000003401167322706962314_);}
	.st9{display:inline;fill:url(#SVGID_00000176722217021539219390000000961483495991599235_);}
	.st10{display:inline;fill:url(#SVGID_00000083789956852815878020000006213867501277793185_);}
	.st11{display:inline;fill:url(#SVGID_00000108267587027142408520000017310035950370205059_);}
	.st12{display:inline;fill:url(#SVGID_00000083061860131047053930000009198094526414100877_);}
	.st13{fill:url(#SVGID_00000174563457716875681260000004200389649665675648_);}
	.st14{fill:url(#SVGID_00000051350351512688112550000014365067532803728780_);}
	.st15{fill:url(#SVGID_00000029043626639365096670000015796010100263603125_);}
	.st16{fill:#020202;}
	.st17{fill:url(#SVGID_00000130643309840321445640000011751606798703939975_);}
	.st18{fill:url(#SVGID_00000125588775149493183880000010344450481825801866_);}
	.st19{fill:url(#SVGID_00000168089878782069244460000007709296311857506185_);}
	.st20{fill:url(#SVGID_00000032608920523514888970000015015277335596277913_);}
</style>
<g id="Layer_5">
	<g id="Layer_7" class="st7">
	</g>
	<g id="Layer_7_copy" class="st7">
	</g>
</g>
<g id="BlackBG">
</g>
<g id="WhiteBG">
	<linearGradient id="SVGID_1_" gradientUnits="userSpaceOnUse" x1="420.9449" y1="233.4982" x2="420.9449" y2="283.2223">
		<stop  offset="0" style="stop-color:#346095"/>
		<stop  offset="0.2358" style="stop-color:#449DD6"/>
		<stop  offset="0.4855" style="stop-color:#2365A9"/>
		<stop  offset="0.5366" style="stop-color:#2A6FB0"/>
		<stop  offset="0.638" style="stop-color:#3B89C5"/>
		<stop  offset="0.6983" style="stop-color:#449DD6"/>
		<stop  offset="1" style="stop-color:#2264A7"/>
	</linearGradient>
	<path class="st1" d="M69.2,236.5l12.3,27.8l12.2-27.8h12.9v38.3h-9.9v-10.5l1-18.1l-12.9,28.5h-6.8l-12.9-28.5l1,18v10.5h-9.9
		v-38.3H69.2z M181.5,256.5c0,3.8-0.8,7.1-2.5,9.9c-1.7,2.8-4,5-7.1,6.6c-3.1,1.5-6.7,2.3-10.7,2.3c-4,0-7.5-0.8-10.6-2.3
		c-3.1-1.5-5.5-3.7-7.2-6.5c-1.7-2.8-2.6-6.1-2.6-9.8v-1.9c0-3.8,0.8-7.1,2.5-10c1.7-2.9,4.1-5.1,7.2-6.6c3.1-1.5,6.6-2.3,10.6-2.3
		s7.5,0.8,10.6,2.3c3.1,1.5,5.5,3.7,7.2,6.6s2.5,6.2,2.5,9.9V256.5z M171.5,254.8c0-4-0.9-7.1-2.7-9.1c-1.8-2.1-4.4-3.1-7.7-3.1
		c-3.3,0-5.9,1-7.7,3.1c-1.8,2.1-2.7,5.1-2.7,9.1v1.9c0,3.9,0.9,6.9,2.7,9.1c1.8,2.2,4.4,3.2,7.8,3.2c3.3,0,5.8-1,7.6-3.1
		c1.8-2.1,2.7-5.1,2.7-9.1V254.8z M215.6,274.8v-38.3h16.8c5.8,0,10.2,0.9,13.2,2.7c3,1.8,4.5,4.4,4.5,7.8c0,1.9-0.6,3.5-1.8,5
		c-1.2,1.4-2.9,2.5-5,3.1c2.5,0.5,4.4,1.5,5.8,3c1.4,1.5,2.1,3.3,2.1,5.5c0,3.7-1.5,6.5-4.4,8.4c-2.9,1.9-7.1,2.9-12.6,2.9H215.6z
		 M225.4,252.6h7.3c5-0.1,7.5-1.7,7.5-4.8c0-1.7-0.6-3-1.9-3.7c-1.3-0.8-3.2-1.1-6-1.1h-6.9V252.6z M225.4,258.1v10.3h8.4
		c2.3,0,4.1-0.4,5.4-1.3c1.3-0.9,2-2.1,2-3.7c0-3.5-2.3-5.3-6.8-5.3H225.4z M295.9,274.8h-9.9v-38.3h9.9V274.8z M341.8,268.5h20.9
		v6.3H332v-38.3h9.9V268.5z M405.8,274.8H396v-38.3h9.9V274.8z M476.9,242.9h-14.7v31.9h-9.9v-31.9H438v-6.4h39V242.9z M526.5,253.8
		l10-17.2h10.8l-15.7,24.4v13.9h-10v-13.9l-15.7-24.4h10.8L526.5,253.8z M632.1,268.5H653v6.3h-30.8v-38.3h9.9V268.5z M695.4,268.5
		h20.9v6.3h-30.8v-38.3h9.9V268.5z M758.8,261.3v13.5h-9.9v-38.3h18.7c3.6,0,6.8,0.5,9.5,1.6c2.7,1.1,4.8,2.5,6.3,4.5
		c1.5,1.9,2.2,4.1,2.2,6.6c0,3.8-1.6,6.7-4.8,8.9c-3.2,2.2-7.7,3.2-13.3,3.2H758.8z M758.8,254.9h8.8c2.6,0,4.6-0.5,6-1.5
		c1.4-1,2.1-2.4,2.1-4.2c0-1.9-0.7-3.4-2.1-4.5c-1.4-1.2-3.3-1.8-5.7-1.8h-9V254.9z M775.6,285h-26.7v7.7h26.7V285z"/>
	
		<linearGradient id="SVGID_00000022548015601101303210000001594595394414455728_" gradientUnits="userSpaceOnUse" x1="420.9449" y1="113.647" x2="420.9449" y2="202.0173">
		<stop  offset="0" style="stop-color:#AAD037"/>
		<stop  offset="0.4928" style="stop-color:#649F42"/>
		<stop  offset="1" style="stop-color:#25644B"/>
	</linearGradient>
	<path style="fill:url(#SVGID_00000022548015601101303210000001594595394414455728_);" d="M99.6,119.4l0.2-0.1v-0.1
		c0.2-0.2,0.3-0.4,0.3-0.5c0.2-0.2,0.5-0.4,0.6-0.6v-0.1l0.6-0.5l0.2-0.3l0.3-0.1v-0.1l0.2-0.1l0.3-0.1l0.2-0.2l0.3-0.1l0.6-0.5h0.2
		c0.3-0.1,0.5-0.4,0.8-0.5c0.2,0,0.5-0.1,0.6-0.2h0.2l0.2-0.1l0.9-0.4l0.3-0.1c1.6-0.4,3.1-0.6,4.5-0.7h0.5c1.5,0.1,3.1,0.4,4.7,0.7
		l0.6,0.2l0.2,0.1h0.2l0.3,0.1l0.2,0.1h0.2c0.2,0.1,0.3,0.2,0.5,0.2h0.2c0.2,0.1,0.5,0.4,0.8,0.5l0.3,0.1l1.1,0.9h0.2l0.2,0.1v0.1
		l0.3,0.1l0.2,0.2l0.2,0.1v0.1l0.3,0.1v0.1l0.2,0.1c0.2,0.2,0.3,0.4,0.5,0.6c0.2,0.1,0.3,0.3,0.3,0.5h0.2v0.1l0.2,0.1l44.1,67.3
		c3.4,5.1,0.9,11.4-5.6,14.1c-6.4,2.6-14.3,0.6-17.5-4.5l-32.6-49.6l-32.6,49.7c-3.3,5.1-11.2,7.1-17.7,4.5
		c-6.4-2.7-8.8-9.1-5.4-14.1L99.6,119.4z M359.4,119.4l0.2-0.1v-0.1c0.2-0.2,0.3-0.4,0.3-0.5c0.2-0.2,0.5-0.4,0.6-0.6v-0.1l0.6-0.5
		l0.2-0.3l0.3-0.1v-0.1l0.2-0.1l0.3-0.1l0.2-0.2l0.3-0.1l0.6-0.5h0.2c0.3-0.1,0.5-0.4,0.8-0.5c0.2,0,0.5-0.1,0.6-0.2h0.2l0.2-0.1
		l0.9-0.4l0.3-0.1c1.6-0.4,3.1-0.6,4.5-0.7h0.5c1.5,0.1,3.1,0.4,4.7,0.7l0.6,0.2l0.2,0.1h0.2l0.3,0.1l0.2,0.1h0.2
		c0.2,0.1,0.3,0.2,0.5,0.2h0.2c0.2,0.1,0.5,0.4,0.8,0.5l0.3,0.1l1.1,0.9h0.2l0.2,0.1v0.1l0.3,0.1l0.2,0.2l0.2,0.1v0.1l0.3,0.1v0.1
		l0.2,0.1c0.2,0.2,0.3,0.4,0.5,0.6c0.2,0.1,0.3,0.3,0.3,0.5h0.2v0.1l0.2,0.1l44.1,67.3c3.4,5.1,0.9,11.4-5.6,14.1
		c-6.4,2.6-14.3,0.6-17.5-4.5L371,146.7l-32.6,49.7c-3.3,5.1-11.2,7.1-17.7,4.5c-6.4-2.7-8.8-9.1-5.4-14.1L359.4,119.4z
		 M543.6,113.6c-7.3,0-13.2,4.7-13.2,10.5v43l-62.3-49.9l-0.1,0c-2.4-2.2-5.9-3.6-9.8-3.6c-7.3,0-13.2,4.7-13.2,10.5v67.3
		c0,5.8,5.9,10.5,13.2,10.5c7.1,0,13-4.7,13-10.5v-43.1l62,49.7c2.4,2.4,6.1,3.9,10.3,3.9c7.3,0,13.2-4.7,13.2-10.5v-67.3
		C556.8,118.4,550.9,113.6,543.6,113.6z M283.8,113.6c-7.3,0-13.2,4.7-13.2,10.5v43l-62.3-49.9l-0.1,0c-2.4-2.2-5.9-3.6-9.8-3.6
		c-7.3,0-13.2,4.7-13.2,10.5v67.3c0,5.8,5.9,10.5,13.2,10.5c7.1,0,13-4.7,13-10.5v-43.1l62,49.7c2.4,2.4,6.1,3.9,10.3,3.9
		c7.3,0,13.2-4.7,13.2-10.5v-67.3C297,118.4,291.1,113.6,283.8,113.6z M670.3,113.6H585c-7.3,0-13.2,4.7-13.2,10.6
		c0,5.8,5.9,10.4,13.2,10.4h29.5v56.9c0,5.8,5.9,10.5,13.2,10.5c7.3,0,13.2-4.7,13.2-10.5v-56.9h29.5c7.3,0,13.2-4.6,13.2-10.4
		C683.5,118.4,677.6,113.6,670.3,113.6z M719,119.4l0.2-0.1v-0.1c0.2-0.2,0.3-0.4,0.3-0.5c0.2-0.2,0.5-0.4,0.6-0.6v-0.1l0.6-0.5
		l0.2-0.3l0.3-0.1v-0.1l0.2-0.1l0.3-0.1l0.2-0.2l0.3-0.1l0.6-0.5h0.2c0.3-0.1,0.5-0.4,0.8-0.5c0.2,0,0.5-0.1,0.6-0.2h0.2l0.2-0.1
		l0.9-0.4l0.3-0.1c1.6-0.4,3.1-0.6,4.5-0.7h0.5c1.6,0.1,3.1,0.4,4.7,0.7l0.6,0.2l0.2,0.1h0.2l0.3,0.1l0.2,0.1h0.2
		c0.2,0.1,0.3,0.2,0.5,0.2h0.2c0.2,0.1,0.5,0.4,0.8,0.5l0.3,0.1l1.1,0.9h0.2l0.2,0.1v0.1l0.3,0.1l0.2,0.2l0.2,0.1v0.1l0.3,0.1v0.1
		l0.2,0.1c0.2,0.2,0.3,0.4,0.5,0.6c0.2,0.1,0.3,0.3,0.3,0.5h0.2v0.1l0.2,0.1l44.1,67.3c3.4,5.1,0.9,11.4-5.6,14.1
		c-6.4,2.6-14.3,0.6-17.5-4.5l-32.6-49.6l-32.6,49.7c-3.3,5.1-11.2,7.1-17.7,4.5c-6.4-2.7-8.8-9.1-5.4-14.1L719,119.4z"/>
</g>
</svg>
